<?xml version="1.0" encoding="utf-8" standalone="no"?>
<!DOCTYPE svg PUBLIC "-//W3C//DTD SVG 1.1//EN" "http://www.w3.org/Graphics/SVG/1.1/DTD/svg11.dtd">
<svg version="1.1" width="841.68pt" height="595.2pt" viewBox="0 0 841.68 595.2" overflow="visible" xmlns="http://www.w3.org/2000/svg">
  <g id="Default">
    <path d="M172.18755,482.11676 L193.08913,482.11676" stroke="#000000" stroke-width="2.2677166" stroke-linecap="round" stroke-linejoin="round" fill="none" />
    <path d="M207.26236,482.11676 L221.43558,482.11676" stroke="#000000" stroke-width="2.2677166" stroke-linecap="butt" stroke-linejoin="round" fill="none" />
    <path d="M235.60881,482.11676 L249.78203,482.11676" stroke="#000000" stroke-width="2.2677166" stroke-linecap="butt" stroke-linejoin="round" fill="none" />
    <path d="M263.95526,482.11676 L278.12848,482.11676" stroke="#000000" stroke-width="2.2677166" stroke-linecap="butt" stroke-linejoin="round" fill="none" />
    <path d="M292.30173,482.11676 L306.47495,482.11676" stroke="#000000" stroke-width="2.2677166" stroke-linecap="butt" stroke-linejoin="round" fill="none" />
    <path d="M320.64816,482.11676 L334.82138,482.11676" stroke="#000000" stroke-width="2.2677166" stroke-linecap="butt" stroke-linejoin="round" fill="none" />
    <path d="M348.99463,482.11676 L363.16785,482.11676" stroke="#000000" stroke-width="2.2677166" stroke-linecap="butt" stroke-linejoin="round" fill="none" />
    <path d="M377.3411,482.11676 L391.51428,482.11676" stroke="#000000" stroke-width="2.2677166" stroke-linecap="butt" stroke-linejoin="round" fill="none" />
    <path d="M405.68753,482.11676 L419.86075,482.11676" stroke="#000000" stroke-width="2.2677166" stroke-linecap="butt" stroke-linejoin="round" fill="none" />
    <path d="M434.034,482.11676 L448.20724,482.11676" stroke="#000000" stroke-width="2.2677166" stroke-linecap="butt" stroke-linejoin="round" fill="none" />
    <path d="M462.38046,482.11676 L476.55368,482.11676" stroke="#000000" stroke-width="2.2677166" stroke-linecap="butt" stroke-linejoin="round" fill="none" />
    <path d="M490.7269,482.11676 L504.90012,482.11676" stroke="#000000" stroke-width="2.2677166" stroke-linecap="butt" stroke-linejoin="round" fill="none" />
    <path d="M519.07336,482.11676 L533.2466,482.11676" stroke="#000000" stroke-width="2.2677166" stroke-linecap="butt" stroke-linejoin="round" fill="none" />
    <path d="M547.41986,482.11676 L561.593,482.11676" stroke="#000000" stroke-width="2.2677166" stroke-linecap="butt" stroke-linejoin="round" fill="none" />
    <path d="M575.7663,482.11676 L589.9395,482.11676" stroke="#000000" stroke-width="2.2677166" stroke-linecap="butt" stroke-linejoin="round" fill="none" />
    <path d="M604.11273,482.11676 L618.28595,482.11676" stroke="#000000" stroke-width="2.2677166" stroke-linecap="butt" stroke-linejoin="round" fill="none" />
    <path d="M632.45917,482.11676 L646.63245,482.11676" stroke="#000000" stroke-width="2.2677166" stroke-linecap="butt" stroke-linejoin="round" fill="none" />
    <path d="M660.80566,482.11676 L674.9788,482.11676" stroke="#000000" stroke-width="2.2677166" stroke-linecap="butt" stroke-linejoin="round" fill="none" />
    <path d="M689.1521,482.11676 L703.3253,482.11676" stroke="#000000" stroke-width="2.2677166" stroke-linecap="butt" stroke-linejoin="round" fill="none" />
    <path d="M717.4986,482.11676 L731.67175,482.11676" stroke="#000000" stroke-width="2.2677166" stroke-linecap="butt" stroke-linejoin="round" fill="none" />
    <path d="M745.845,482.11676 L760.01825,482.11676" stroke="#000000" stroke-width="2.2677166" stroke-linecap="butt" stroke-linejoin="round" fill="none" />
    <path d="M774.19147,482.11676 L788.3647,482.11676" stroke="#000000" stroke-width="2.2677166" stroke-linecap="butt" stroke-linejoin="round" fill="none" />
    <path d="M802.5379,482.11676 L823.43945,482.11676" stroke="#000000" stroke-width="2.2677166" stroke-linecap="round" stroke-linejoin="round" fill="none" />
    <path d="M686.3831,69.49529 L739.52966,69.49529 L739.52966,2.9465346 L686.3831,2.9465346 z" stroke="#000000" stroke-width="2.2677166" stroke-linecap="round" stroke-linejoin="round" fill="none" />
    <path d="M18.240509,592.2534 L818.35205,19.83806" stroke="#000000" stroke-width="2.2677166" stroke-linecap="round" stroke-linejoin="round" fill="none" />
    <circle cx="172.1875457763672" cy="482.11676025390625" r="17.582340240478516" stroke="#000000" stroke-width="2.267716646194458" fill="none" />
    <path d="M648.13403,246.62202 L701.2806,246.62202 L701.2806,180.07329 L648.13403,180.07329 z" stroke="#000000" stroke-width="2.2677166" stroke-linecap="round" stroke-linejoin="round" fill="none" />
    <path d="M482.41296,406.55923 L535.5595,406.55923 L535.5595,340.01047 L482.41296,340.01047 z" stroke="#000000" stroke-width="2.2677166" stroke-linecap="round" stroke-linejoin="round" fill="none" />
    <path d="M395.61682,543.94366 A231.82582,231.82582 0 0 0 317.928,301.8311" stroke="#000000" stroke-width="2.16" stroke-linecap="round" stroke-linejoin="round" fill="none" />
  </g>
  <g id="pink">
    <path d="M652.8556,138.23747 L566.42847,179.0807" stroke="#FF00E2" stroke-width="2.2677166" stroke-linecap="round" stroke-linejoin="round" fill="none" />
    <path d="M652.8556,138.23747 L588.83435,209.2241" stroke="#FF00E2" stroke-width="2.2677166" stroke-linecap="round" stroke-linejoin="round" fill="none" />
    <path d="M172.18755,482.11676 L652.8556,138.23747" stroke="#FF00E2" stroke-width="3.4015749" stroke-linecap="round" stroke-linejoin="round" fill="none" />
    <path d="M566.42847,179.0807 C565.6497,179.44353 566.1195,181.78413 567.65845,185.01982 C569.1975,188.2555 571.80566,192.38623 574.7305,196.30865 C577.65533,200.2311 580.8967,203.94519 583.5019,206.33441 C586.10693,208.72362 588.07574,209.78795 588.83435,209.2241 C589.59296,208.66023 589.14124,206.4682 587.6043,203.28499 C586.0674,200.10179 583.4452,195.92741 580.5323,191.99615 C577.6194,188.06488 574.4158,184.37672 571.761,181.9704 C569.1062,179.56407 567.00037,178.43959 566.42847,179.0807 z" stroke="#FF00E2" stroke-width="2.2677166" stroke-linecap="round" stroke-linejoin="round" fill="none" />
  </g>
  <text x="497.6637595825378" y="386.5534451871233" font-family="Comic Sans MS" fill="#000000" font-size="39.39564514160156">2</text>
  <text x="701.6339043543586" y="49.489471662444565" font-family="Comic Sans MS" fill="#000000" font-size="39.39564514160156">3</text>
  <text x="663.3847886200667" y="226.61624524358362" font-family="Comic Sans MS" fill="#000000" font-size="39.39564514160156">1</text>
  <text x="434.77615817046905" y="423.376623069881" font-family="Comic Sans MS" text-anchor="middle" fill="#000000" font-size="78.79129028320312">a</text>
  <polygon fill="#000000" fill-opacity="1" points="404.0134,482.1168 389.87042,522.7318 410.64725,524.6091" xmlns="" />
  <polygon fill="#000000" fill-opacity="1" points="360.73083,347.22925 341.40207,308.81052 325.59662,322.42624" xmlns="" />
  <path d="M497.30362,482.1168 L383.15195,482.1168" stroke="#000000" stroke-width="2.16" stroke-linecap="round" stroke-linejoin="round" fill="none" />
  <path d="M370.40076,340.3112 L377.6974,335.09103" stroke="#000000" stroke-width="2.16" stroke-linecap="round" stroke-linejoin="round" fill="none" />
</svg>