<?xml version="1.0" encoding="utf-8" standalone="no"?>
<!DOCTYPE svg PUBLIC "-//W3C//DTD SVG 1.1//EN" "http://www.w3.org/Graphics/SVG/1.1/DTD/svg11.dtd">
<svg version="1.1" width="595.2pt" height="841.68pt" viewBox="0 0 595.2 841.68" overflow="visible" xmlns="http://www.w3.org/2000/svg">
  <g id="Default">
    <path d="M310.51117,680.7281 L297.6,712.5025" stroke="#000000" stroke-width="2.2677166" stroke-linecap="round" stroke-linejoin="round" fill="none" />
    <path d="M168.64026,310.58047 L207.25804,342.1297" stroke="#000000" stroke-width="2.2677166" stroke-linecap="round" stroke-linejoin="round" fill="none" />
    <path d="M2.9465346,139.02493 L76.414505,139.02493" stroke="#000000" stroke-width="2.2677166" stroke-linecap="round" stroke-linejoin="round" fill="none" />
    <path d="M284.68884,680.7281 L297.6,712.5025" stroke="#000000" stroke-width="2.2677166" stroke-linecap="round" stroke-linejoin="round" fill="none" />
    <path d="M310.51117,680.7281 C311.03815,679.14996 304.18732,677.65 297.6,677.663 C291.0127,677.6761 284.68884,679.202 284.68884,680.7281 C284.68884,682.2541 291.0127,683.78 297.6,683.7931 C304.18732,683.8061 311.03815,682.30615 310.51117,680.7281 z" stroke="#000000" stroke-width="2.2677166" stroke-linecap="round" stroke-linejoin="round" fill="none" />
    <path d="M387.94196,342.1297 C388.31122,340.8293 394.08383,343.6689 398.93555,347.329 C403.78726,350.98914 407.71805,355.46976 406.98523,356.44467 C406.25235,357.4196 400.85583,354.8888 395.9916,351.24536 C391.12738,347.6019 386.7954,342.84576 387.94196,342.1297 z" stroke="#000000" stroke-width="2.2677166" stroke-linecap="round" stroke-linejoin="round" fill="none" />
    <path d="M426.55975,310.58047 L406.98523,356.44467" stroke="#000000" stroke-width="2.2677166" stroke-linecap="round" stroke-linejoin="round" fill="none" />
    <path d="M426.55975,310.58047 L387.94196,342.1297" stroke="#000000" stroke-width="2.2677166" stroke-linecap="round" stroke-linejoin="round" fill="none" />
    <path d="M207.25804,342.1297 C206.88881,340.8293 201.11617,343.6689 196.26445,347.329 C191.41275,350.98914 187.48193,355.46976 188.2148,356.44467 C188.94765,357.4196 194.34416,354.8888 199.20839,351.24536 C204.07263,347.6019 208.40459,342.84576 207.25804,342.1297 z" stroke="#000000" stroke-width="2.2677166" stroke-linecap="round" stroke-linejoin="round" fill="none" />
    <circle cx="297.6000061035156" cy="515.4434204101562" r="7.311371803283691" stroke="#000000" stroke-width="2.267716646194458" fill="none" />
    <path d="M297.6,515.4434 L297.6,680.7281" stroke="#000000" stroke-width="2.2677166" stroke-linecap="round" stroke-linejoin="round" fill="none" />
    <path d="M530.6453,139.02493 L539.7694,129.17746" stroke="#000000" stroke-width="2.2677166" stroke-linecap="round" stroke-linejoin="round" fill="none" />
    <path d="M547.5901,139.02493 L556.71423,129.17746" stroke="#000000" stroke-width="2.2677166" stroke-linecap="round" stroke-linejoin="round" fill="none" />
    <path d="M564.5349,139.02493 L573.659,129.17746" stroke="#000000" stroke-width="2.2677166" stroke-linecap="round" stroke-linejoin="round" fill="none" />
    <path d="M581.4797,139.02493 L590.60376,129.17746" stroke="#000000" stroke-width="2.2677166" stroke-linecap="round" stroke-linejoin="round" fill="none" />
    <path d="M555.5195,139.02493 L297.6,482.13602" stroke="#000000" stroke-width="2.2677166" stroke-linecap="round" stroke-linejoin="round" fill="none" />
    <path d="M592.2534,139.02493 L518.78546,139.02493" stroke="#000000" stroke-width="2.2677166" stroke-linecap="round" stroke-linejoin="round" fill="none" />
    <path d="M261.48026,548.7508 L333.71973,548.7508 L333.71973,482.13602 L261.48026,482.13602 z" stroke="#000000" stroke-width="2.2677166" stroke-linecap="round" stroke-linejoin="round" fill="none" />
    <path d="M64.55467,139.02493 L55.430557,129.17746" stroke="#000000" stroke-width="2.2677166" stroke-linecap="round" stroke-linejoin="round" fill="none" />
    <path d="M47.609886,139.02493 L38.48577,129.17746" stroke="#000000" stroke-width="2.2677166" stroke-linecap="round" stroke-linejoin="round" fill="none" />
    <path d="M30.665096,139.02493 L21.540977,129.17746" stroke="#000000" stroke-width="2.2677166" stroke-linecap="round" stroke-linejoin="round" fill="none" />
    <path d="M13.720305,139.02493 L4.596187,129.17746" stroke="#000000" stroke-width="2.2677166" stroke-linecap="round" stroke-linejoin="round" fill="none" />
    <path d="M39.680523,139.02493 L297.6,482.13602" stroke="#000000" stroke-width="2.2677166" stroke-linecap="round" stroke-linejoin="round" fill="none" />
    <path d="M168.64026,310.58047 L188.2148,356.44467" stroke="#000000" stroke-width="2.2677166" stroke-linecap="round" stroke-linejoin="round" fill="none" />
  </g>
  <text x="286.1678847333932" y="231.62758457966578" font-family="Comic Sans MS" text-anchor="middle" fill="#000000" font-size="22.88214874267578">DIAGRAMA DE</text>
  <text x="289.74126698505415" y="260.7082562466793" font-family="Comic Sans MS" text-anchor="middle" fill="#000000" font-size="22.88214874267578">CUERPO LIBRE</text>
</svg>